<svg width="58" height="15" viewBox="0 0 58 15" fill="none" xmlns="http://www.w3.org/2000/svg">
<g clip-path="url(#clip0_4_5138)">
<mask id="mask0_4_5138" style="mask-type:luminance" maskUnits="userSpaceOnUse" x="1" y="1" width="10" height="11">
<path d="M1 1.5H11V11.5H1V1.5Z" fill="white"/>
</mask>
<g mask="url(#mask0_4_5138)">
<path d="M6.44801 2.02895C6.40664 1.94548 6.34278 1.87523 6.26363 1.82612C6.18447 1.777 6.09317 1.75098 6.00001 1.75098C5.90685 1.75098 5.81555 1.777 5.73639 1.82612C5.65724 1.87523 5.59338 1.94548 5.55201 2.02895L4.28701 4.58995L1.45901 4.99995C1.36645 5.01322 1.27947 5.05218 1.20795 5.11239C1.13642 5.17261 1.08321 5.25168 1.05436 5.34062C1.02551 5.42956 1.02218 5.52481 1.04475 5.61555C1.06731 5.70629 1.11486 5.78888 1.18201 5.85395L3.22801 7.84795L2.74501 10.6639C2.72896 10.756 2.73905 10.8508 2.77414 10.9374C2.80923 11.0241 2.8679 11.0992 2.9435 11.1541C3.0191 11.2091 3.10861 11.2418 3.20185 11.2485C3.29509 11.2552 3.38834 11.2356 3.47101 11.1919L6.00001 9.86295L8.53001 11.1929C8.61257 11.2362 8.70558 11.2556 8.79855 11.2488C8.89151 11.242 8.98073 11.2093 9.05613 11.1545C9.13153 11.0997 9.1901 11.0249 9.22525 10.9386C9.26039 10.8523 9.2707 10.7578 9.25501 10.6659L8.77201 7.84895L10.818 5.85495C10.8849 5.78984 10.9322 5.70732 10.9545 5.61673C10.9769 5.52614 10.9735 5.43109 10.9447 5.34233C10.9159 5.25357 10.8628 5.17465 10.7915 5.1145C10.7201 5.05435 10.6334 5.01536 10.541 5.00195L7.71301 4.58995L6.44801 2.02895Z" fill="#FFC400"/>
</g>
<mask id="mask1_4_5138" style="mask-type:luminance" maskUnits="userSpaceOnUse" x="13" y="1" width="10" height="11">
<path d="M13 1.5H23V11.5H13V1.5Z" fill="white"/>
</mask>
<g mask="url(#mask1_4_5138)">
<path d="M18.448 2.02895C18.4066 1.94548 18.3428 1.87523 18.2636 1.82612C18.1845 1.777 18.0932 1.75098 18 1.75098C17.9069 1.75098 17.8156 1.777 17.7364 1.82612C17.6572 1.87523 17.5934 1.94548 17.552 2.02895L16.287 4.58995L13.459 4.99995C13.3665 5.01322 13.2795 5.05218 13.2079 5.11239C13.1364 5.17261 13.0832 5.25168 13.0544 5.34062C13.0255 5.42956 13.0222 5.52481 13.0447 5.61555C13.0673 5.70629 13.1149 5.78888 13.182 5.85395L15.228 7.84795L14.745 10.6639C14.729 10.756 14.7391 10.8508 14.7741 10.9374C14.8092 11.0241 14.8679 11.0992 14.9435 11.1541C15.0191 11.2091 15.1086 11.2418 15.2018 11.2485C15.2951 11.2552 15.3883 11.2356 15.471 11.1919L18 9.86295L20.53 11.1929C20.6126 11.2362 20.7056 11.2556 20.7985 11.2488C20.8915 11.242 20.9807 11.2093 21.0561 11.1545C21.1315 11.0997 21.1901 11.0249 21.2252 10.9386C21.2604 10.8523 21.2707 10.7578 21.255 10.6659L20.772 7.84895L22.818 5.85495C22.8849 5.78984 22.9322 5.70732 22.9545 5.61673C22.9769 5.52614 22.9735 5.43109 22.9447 5.34233C22.9159 5.25357 22.8628 5.17465 22.7915 5.1145C22.7201 5.05435 22.6334 5.01536 22.541 5.00195L19.713 4.58995L18.448 2.02895Z" fill="#FFC400"/>
</g>
<mask id="mask2_4_5138" style="mask-type:luminance" maskUnits="userSpaceOnUse" x="25" y="1" width="10" height="11">
<path d="M25 1.5H35V11.5H25V1.5Z" fill="white"/>
</mask>
<g mask="url(#mask2_4_5138)">
<path d="M30.448 2.02895C30.4066 1.94548 30.3428 1.87523 30.2636 1.82612C30.1845 1.777 30.0932 1.75098 30 1.75098C29.9069 1.75098 29.8156 1.777 29.7364 1.82612C29.6572 1.87523 29.5934 1.94548 29.552 2.02895L28.287 4.58995L25.459 4.99995C25.3665 5.01322 25.2795 5.05218 25.2079 5.11239C25.1364 5.17261 25.0832 5.25168 25.0544 5.34062C25.0255 5.42956 25.0222 5.52481 25.0447 5.61555C25.0673 5.70629 25.1149 5.78888 25.182 5.85395L27.228 7.84795L26.745 10.6639C26.729 10.756 26.7391 10.8508 26.7741 10.9374C26.8092 11.0241 26.8679 11.0992 26.9435 11.1541C27.0191 11.2091 27.1086 11.2418 27.2018 11.2485C27.2951 11.2552 27.3883 11.2356 27.471 11.1919L30 9.86295L32.53 11.1929C32.6126 11.2362 32.7056 11.2556 32.7985 11.2488C32.8915 11.242 32.9807 11.2093 33.0561 11.1545C33.1315 11.0997 33.1901 11.0249 33.2252 10.9386C33.2604 10.8523 33.2707 10.7578 33.255 10.6659L32.772 7.84895L34.818 5.85495C34.8849 5.78984 34.9322 5.70732 34.9545 5.61673C34.9769 5.52614 34.9735 5.43109 34.9447 5.34233C34.9159 5.25357 34.8628 5.17465 34.7915 5.1145C34.7201 5.05435 34.6334 5.01536 34.541 5.00195L31.713 4.58995L30.448 2.02895Z" fill="#FFC400"/>
</g>
<mask id="mask3_4_5138" style="mask-type:luminance" maskUnits="userSpaceOnUse" x="37" y="1" width="10" height="11">
<path d="M37 1.5H47V11.5H37V1.5Z" fill="white"/>
</mask>
<g mask="url(#mask3_4_5138)">
<path d="M42.448 2.02895C42.4066 1.94548 42.3428 1.87523 42.2636 1.82612C42.1845 1.777 42.0932 1.75098 42 1.75098C41.9069 1.75098 41.8156 1.777 41.7364 1.82612C41.6572 1.87523 41.5934 1.94548 41.552 2.02895L40.287 4.58995L37.459 4.99995C37.3665 5.01322 37.2795 5.05218 37.2079 5.11239C37.1364 5.17261 37.0832 5.25168 37.0544 5.34062C37.0255 5.42956 37.0222 5.52481 37.0447 5.61555C37.0673 5.70629 37.1149 5.78888 37.182 5.85395L39.228 7.84795L38.745 10.6639C38.729 10.756 38.7391 10.8508 38.7741 10.9374C38.8092 11.0241 38.8679 11.0992 38.9435 11.1541C39.0191 11.2091 39.1086 11.2418 39.2018 11.2485C39.2951 11.2552 39.3883 11.2356 39.471 11.1919L42 9.86295L44.53 11.1929C44.6126 11.2362 44.7056 11.2556 44.7985 11.2488C44.8915 11.242 44.9807 11.2093 45.0561 11.1545C45.1315 11.0997 45.1901 11.0249 45.2252 10.9386C45.2604 10.8523 45.2707 10.7578 45.255 10.6659L44.772 7.84895L46.818 5.85495C46.8849 5.78984 46.9322 5.70732 46.9545 5.61673C46.9769 5.52614 46.9735 5.43109 46.9447 5.34233C46.9159 5.25357 46.8628 5.17465 46.7915 5.1145C46.7201 5.05435 46.6334 5.01536 46.541 5.00195L43.713 4.58995L42.448 2.02895Z" fill="#FFC400"/>
</g>
<mask id="mask4_4_5138" style="mask-type:luminance" maskUnits="userSpaceOnUse" x="49" y="1" width="10" height="11">
<path d="M49 1.5H59V11.5H49V1.5Z" fill="white"/>
</mask>
<g mask="url(#mask4_4_5138)">
<path d="M54.448 2.02895C54.4066 1.94548 54.3428 1.87523 54.2636 1.82612C54.1845 1.777 54.0932 1.75098 54 1.75098C53.9069 1.75098 53.8156 1.777 53.7364 1.82612C53.6572 1.87523 53.5934 1.94548 53.552 2.02895L52.287 4.58995L49.459 4.99995C49.3665 5.01322 49.2795 5.05218 49.2079 5.11239C49.1364 5.17261 49.0832 5.25168 49.0544 5.34062C49.0255 5.42956 49.0222 5.52481 49.0447 5.61555C49.0673 5.70629 49.1149 5.78888 49.182 5.85395L51.228 7.84795L50.745 10.6639C50.729 10.756 50.7391 10.8508 50.7741 10.9374C50.8092 11.0241 50.8679 11.0992 50.9435 11.1541C51.0191 11.2091 51.1086 11.2418 51.2018 11.2485C51.2951 11.2552 51.3883 11.2356 51.471 11.1919L54 9.86295L56.53 11.1929C56.6126 11.2362 56.7056 11.2556 56.7985 11.2488C56.8915 11.242 56.9807 11.2093 57.0561 11.1545C57.1315 11.0997 57.1901 11.0249 57.2252 10.9386C57.2604 10.8523 57.2707 10.7578 57.255 10.6659L56.772 7.84895L58.818 5.85495C58.8849 5.78984 58.9322 5.70732 58.9545 5.61673C58.9769 5.52614 58.9735 5.43109 58.9447 5.34233C58.9159 5.25357 58.8628 5.17465 58.7915 5.1145C58.7201 5.05435 58.6334 5.01536 58.541 5.00195L55.713 4.58995L54.448 2.02895Z" fill="#FFC400"/>
</g>
</g>
<defs>
<clipPath id="clip0_4_5138">
<rect width="57.59" height="15" fill="white"/>
</clipPath>
</defs>
</svg>
